<svg width="22" height="21" viewBox="0 0 22 21" fill="#3289F3" xmlns="http://www.w3.org/2000/svg">
<path d="M11.0141 0.499573C9.70087 0.499573 8.40051 0.75823 7.18725 1.26078C5.974 1.76332 4.87161 2.49992 3.94302 3.4285C2.06766 5.30387 1.01409 7.84741 1.01409 10.4996C1.00535 12.8087 1.80488 15.0481 3.27409 16.8296L1.27409 18.8296C1.13533 18.9702 1.04133 19.1488 1.00396 19.3428C0.966585 19.5367 0.987508 19.7375 1.06409 19.9196C1.14715 20.0995 1.28179 20.2507 1.45093 20.354C1.62008 20.4572 1.81609 20.5079 2.01409 20.4996H11.0141C13.6663 20.4996 16.2098 19.446 18.0852 17.5706C19.9605 15.6953 21.0141 13.1517 21.0141 10.4996C21.0141 7.84741 19.9605 5.30387 18.0852 3.4285C16.2098 1.55314 13.6663 0.499573 11.0141 0.499573ZM11.0141 18.4996H4.42409L5.35409 17.5696C5.54034 17.3822 5.64488 17.1288 5.64488 16.8646C5.64488 16.6004 5.54034 16.3469 5.35409 16.1596C4.04467 14.8516 3.22926 13.1301 3.04678 11.2884C2.86429 9.44662 3.32603 7.59858 4.35331 6.05909C5.3806 4.51961 6.90988 3.38393 8.6806 2.84555C10.4513 2.30716 12.3539 2.39938 14.0643 3.10649C15.7747 3.8136 17.1869 5.09185 18.0605 6.72346C18.9341 8.35508 19.215 10.2391 18.8552 12.0546C18.4955 13.87 17.5174 15.5046 16.0876 16.6798C14.6579 17.855 12.8649 18.4981 11.0141 18.4996Z"/>
</svg>
