<svg width="40" height="40" viewBox="0 0 40 40" fill="none" xmlns="http://www.w3.org/2000/svg">
<circle opacity="0.05" cx="20" cy="20" r="20" fill="#3289F3"/>
<path opacity="0.4" d="M28 18.8V20C28 23.7712 28 25.6568 26.828 26.828C25.6576 28 23.7712 28 20 28C16.2288 28 14.3432 28 13.1712 26.828C12 25.6576 12 23.7712 12 20C12 16.2288 12 14.3432 13.1712 13.1712C14.344 12 16.2288 12 20 12H21.2" stroke="#3289F3" stroke-width="1.5" stroke-linecap="round"/>
<path d="M25.6 16.8C26.9255 16.8 28 15.7255 28 14.4C28 13.0745 26.9255 12 25.6 12C24.2745 12 23.2 13.0745 23.2 14.4C23.2 15.7255 24.2745 16.8 25.6 16.8Z" stroke="#3289F3" stroke-width="1.5"/>
</svg>
