<svg width="24" height="25" viewBox="0 0 24 25" fill="none" xmlns="http://www.w3.org/2000/svg">
<path d="M9 11.5C9.79113 11.5 10.5645 11.2654 11.2223 10.8259C11.8801 10.3864 12.3928 9.76164 12.6955 9.03074C12.9983 8.29983 13.0775 7.49556 12.9231 6.71964C12.7688 5.94372 12.3878 5.23098 11.8284 4.67157C11.269 4.11216 10.5563 3.7312 9.78036 3.57686C9.00444 3.42252 8.20017 3.50173 7.46927 3.80448C6.73836 4.10723 6.11365 4.61992 5.67412 5.27772C5.2346 5.93552 5 6.70888 5 7.5C5 8.56087 5.42143 9.57828 6.17157 10.3284C6.92172 11.0786 7.93913 11.5 9 11.5ZM9 5.5C9.39556 5.5 9.78224 5.6173 10.1111 5.83706C10.44 6.05683 10.6964 6.36918 10.8478 6.73463C10.9991 7.10009 11.0387 7.50222 10.9616 7.89018C10.8844 8.27814 10.6939 8.63451 10.4142 8.91422C10.1345 9.19392 9.77814 9.3844 9.39018 9.46157C9.00222 9.53874 8.60009 9.49914 8.23463 9.34776C7.86918 9.19639 7.55682 8.94004 7.33706 8.61114C7.1173 8.28224 7 7.89556 7 7.5C7 6.96957 7.21071 6.46086 7.58579 6.08579C7.96086 5.71072 8.46957 5.5 9 5.5ZM17 13.5C17.5933 13.5 18.1734 13.3241 18.6667 12.9944C19.1601 12.6648 19.5446 12.1962 19.7716 11.6481C19.9987 11.0999 20.0581 10.4967 19.9424 9.91473C19.8266 9.33279 19.5409 8.79824 19.1213 8.37868C18.7018 7.95912 18.1672 7.6734 17.5853 7.55765C17.0033 7.44189 16.4001 7.5013 15.8519 7.72836C15.3038 7.95543 14.8352 8.33994 14.5056 8.83329C14.1759 9.32664 14 9.90666 14 10.5C14 11.2957 14.3161 12.0587 14.8787 12.6213C15.4413 13.1839 16.2044 13.5 17 13.5ZM17 9.5C17.1978 9.5 17.3911 9.55865 17.5556 9.66853C17.72 9.77841 17.8482 9.93459 17.9239 10.1173C17.9996 10.3 18.0194 10.5011 17.9808 10.6951C17.9422 10.8891 17.847 11.0673 17.7071 11.2071C17.5673 11.347 17.3891 11.4422 17.1951 11.4808C17.0011 11.5194 16.8 11.4996 16.6173 11.4239C16.4346 11.3482 16.2784 11.22 16.1685 11.0556C16.0586 10.8911 16 10.6978 16 10.5C16 10.2348 16.1054 9.98043 16.2929 9.7929C16.4804 9.60536 16.7348 9.5 17 9.5ZM17 14.5C15.8918 14.5012 14.8155 14.8706 13.94 15.55C12.9605 14.5744 11.7141 13.9106 10.3578 13.6424C9.00159 13.3743 7.59632 13.5137 6.31923 14.0431C5.04213 14.5726 3.95041 15.4683 3.18174 16.6174C2.41307 17.7665 2.00187 19.1175 2 20.5C2 20.7652 2.10536 21.0196 2.29289 21.2071C2.48043 21.3946 2.73478 21.5 3 21.5C3.26522 21.5 3.51957 21.3946 3.70711 21.2071C3.89464 21.0196 4 20.7652 4 20.5C4 19.1739 4.52678 17.9021 5.46447 16.9645C6.40215 16.0268 7.67392 15.5 9 15.5C10.3261 15.5 11.5979 16.0268 12.5355 16.9645C13.4732 17.9021 14 19.1739 14 20.5C14 20.7652 14.1054 21.0196 14.2929 21.2071C14.4804 21.3946 14.7348 21.5 15 21.5C15.2652 21.5 15.5196 21.3946 15.7071 21.2071C15.8946 21.0196 16 20.7652 16 20.5C16.0024 19.3284 15.7064 18.1755 15.14 17.15C15.5819 16.8008 16.1132 16.583 16.6731 16.5217C17.233 16.4603 17.7989 16.5578 18.306 16.803C18.813 17.0482 19.2408 17.4312 19.5404 17.9081C19.84 18.3851 19.9993 18.9368 20 19.5C20 19.7652 20.1054 20.0196 20.2929 20.2071C20.4804 20.3946 20.7348 20.5 21 20.5C21.2652 20.5 21.5196 20.3946 21.7071 20.2071C21.8946 20.0196 22 19.7652 22 19.5C22 18.1739 21.4732 16.9021 20.5355 15.9645C19.5979 15.0268 18.3261 14.5 17 14.5Z" fill="#3289F3"/>
</svg>
