<svg width="20" height="23" viewBox="0 0 20 23" fill="none" stroke="#3289F3" xmlns="http://www.w3.org/2000/svg">
<path fill-rule="evenodd" clip-rule="evenodd" d="M18.1818 9.68182C18.1818 16.0455 9.99999 21.5 9.99999 21.5C9.99999 21.5 1.81818 16.0455 1.81818 9.68182C1.81818 7.51187 2.68019 5.43079 4.21458 3.8964C5.74896 2.36201 7.83004 1.5 9.99999 1.5C12.1699 1.5 14.251 2.36201 15.7854 3.8964C17.3198 5.43079 18.1818 7.51187 18.1818 9.68182Z" stroke="#3289F3" stroke-width="2" stroke-linecap="round" stroke-linejoin="round"/>
<path d="M9.99998 12.4091C11.5062 12.4091 12.7273 11.1881 12.7273 9.68183C12.7273 8.1756 11.5062 6.95456 9.99998 6.95456C8.49375 6.95456 7.27271 8.1756 7.27271 9.68183C7.27271 11.1881 8.49375 12.4091 9.99998 12.4091Z" stroke="#3289F3" stroke-width="2" stroke-linecap="round" stroke-linejoin="round"/>
</svg>
