<svg width="24" height="25" viewBox="0 0 24 25" fill="#3289F3" xmlns="http://www.w3.org/2000/svg">
<path d="M11.9997 7.96674C11.079 7.96674 10.179 8.22479 9.41346 8.70827C8.64793 9.19175 8.05128 9.87893 7.69895 10.6829C7.34662 11.4869 7.25444 12.3716 7.43405 13.2251C7.61367 14.0786 8.05702 14.8627 8.70804 15.478C9.35907 16.0934 10.1885 16.5124 11.0915 16.6822C11.9945 16.852 12.9305 16.7648 13.7811 16.4318C14.6317 16.0988 15.3587 15.5348 15.8702 14.8112C16.3817 14.0877 16.6547 13.237 16.6547 12.3667C16.6533 11.2002 16.1624 10.0818 15.2898 9.25693C14.4171 8.43205 13.2338 7.96806 11.9997 7.96674ZM11.9997 15.1667C11.4138 15.1667 10.841 15.0025 10.3539 14.6948C9.86675 14.3872 9.48706 13.9499 9.26285 13.4382C9.03864 12.9266 8.97998 12.3636 9.09428 11.8205C9.20858 11.2773 9.49071 10.7784 9.905 10.3868C10.3193 9.99525 10.8471 9.72857 11.4218 9.62054C11.9964 9.5125 12.592 9.56795 13.1333 9.77987C13.6746 9.9918 14.1372 10.3507 14.4627 10.8111C14.7882 11.2716 14.962 11.8129 14.962 12.3667C14.9611 13.1091 14.6487 13.8208 14.0934 14.3457C13.538 14.8706 12.7851 15.1659 11.9997 15.1667Z"/>
<path d="M23.6137 15.8159L21.9331 14.5083C22.231 13.1842 22.231 11.8158 21.9331 10.4917L23.6137 9.18405C23.8075 9.03394 23.9385 8.82351 23.9831 8.59045C24.0278 8.35739 23.9832 8.11692 23.8573 7.9121L22.1322 5.08795C22.0075 4.88247 21.8094 4.72568 21.5735 4.64569C21.3376 4.5657 21.0793 4.56775 20.8448 4.65145L18.805 5.3738C17.7424 4.46634 16.4888 3.7815 15.1264 3.3642L14.7685 1.33565C14.728 1.10187 14.6007 0.889369 14.4095 0.736238C14.2183 0.583108 13.9756 0.499359 13.7249 0.500004H10.2748C10.0242 0.499367 9.78151 0.583112 9.59028 0.736231C9.39905 0.88935 9.27176 1.10183 9.23122 1.3356L8.87352 3.3642C7.51118 3.78149 6.25757 4.46633 5.19497 5.3738L3.15494 4.65135C2.92049 4.5677 2.66219 4.56569 2.42631 4.64569C2.19044 4.72568 1.99241 4.88245 1.8677 5.0879L0.142633 7.91225C0.0168199 8.11708 -0.0277347 8.35756 0.0169489 8.59062C0.0616326 8.82367 0.192635 9.03408 0.386495 9.18415L2.06692 10.4917C1.769 11.8158 1.769 13.1842 2.06692 14.5083L0.386336 15.8159C0.192508 15.9661 0.0615406 16.1765 0.0168869 16.4095C-0.0277668 16.6426 0.0168092 16.8831 0.142633 17.0879L1.86776 19.912C1.99248 20.1175 2.19054 20.2743 2.42644 20.3543C2.66235 20.4343 2.92069 20.4322 3.15515 20.3485L5.19502 19.6262C6.25763 20.5337 7.51123 21.2185 8.87358 21.6358L9.23128 23.6643C9.2718 23.8981 9.39908 24.1106 9.5903 24.2637C9.78152 24.4169 10.0242 24.5006 10.2748 24.5H13.7249C13.9756 24.5006 14.2182 24.4169 14.4095 24.2638C14.6007 24.1107 14.728 23.8982 14.7685 23.6644L15.1263 21.6358C16.4886 21.2185 17.7422 20.5337 18.8048 19.6262L20.8448 20.3486C21.0793 20.4323 21.3376 20.4343 21.5734 20.3543C21.8093 20.2743 22.0073 20.1175 22.132 19.9121L23.857 17.0877C23.9829 16.883 24.0275 16.6426 23.9829 16.4095C23.9383 16.1765 23.8074 15.9661 23.6137 15.8159V15.8159ZM20.9351 18.6719L18.3902 17.7707L18.0049 18.1374C16.9446 19.1476 15.6184 19.872 14.1631 20.2361L13.6341 20.3679L13.1874 22.9H10.8128L10.3662 20.3679L9.83723 20.2361C8.38193 19.872 7.05575 19.1476 5.99548 18.1374L5.61011 17.7707L3.0648 18.6719L1.8777 16.7281L3.97402 15.0969L3.83119 14.5982C3.43841 13.224 3.43841 11.776 3.83119 10.4018L3.97402 9.90315L1.8777 8.27195L3.06506 6.32805L5.60995 7.22925L5.99532 6.86255C7.05559 5.85243 8.38177 5.12797 9.83707 4.7639L10.3661 4.6321L10.8126 2.1H13.1874L13.634 4.6321L14.1629 4.7639C15.6182 5.12797 16.9444 5.85243 18.0047 6.86255L18.3901 7.22925L20.935 6.32805L22.1224 8.2719L20.0261 9.90315L20.1689 10.4018C20.5617 11.776 20.5617 13.224 20.1689 14.5982L20.0261 15.0969L22.1224 16.728L20.9351 18.6719Z"/>
</svg>
