<svg width="20" height="20" viewBox="0 0 20 20" fill="none" xmlns="http://www.w3.org/2000/svg">
<path d="M10 0C9.44771 0 9 0.447715 9 1V2.07C7.24011 2.29352 5.60439 3.09553 4.34996 4.34996C3.09553 5.60439 2.29352 7.24011 2.07 9H1C0.447715 9 0 9.44771 0 10C0 10.5523 0.447715 11 1 11H2.07C2.29352 12.7599 3.09553 14.3956 4.34996 15.65C5.60439 16.9045 7.24011 17.7065 9 17.93V19C9 19.5523 9.44771 20 10 20C10.5523 20 11 19.5523 11 19V17.93C12.7599 17.7065 14.3956 16.9045 15.65 15.65C16.9045 14.3956 17.7065 12.7599 17.93 11H19C19.5523 11 20 10.5523 20 10C20 9.44771 19.5523 9 19 9H17.93C17.7065 7.24011 16.9045 5.60439 15.65 4.34996C14.3956 3.09553 12.7599 2.29352 11 2.07V0M9 4.08V5C9 5.55228 9.44771 6 10 6C10.5523 6 11 5.55228 11 5V4.09C13.5 4.5 15.5 6.5 15.92 9H15C14.4477 9 14 9.44771 14 10C14 10.5523 14.4477 11 15 11H15.91C15.5 13.5 13.5 15.5 11 15.92V15C11 14.4477 10.5523 14 10 14C9.44771 14 9 14.4477 9 15V15.91C6.5 15.5 4.5 13.5 4.08 11H5C5.55228 11 6 10.5523 6 10C6 9.44771 5.55228 9 5 9H4.09C4.5 6.5 6.5 4.5 9 4.08ZM10 9C9.73478 9 9.48043 9.10536 9.29289 9.29289C9.10536 9.48043 9 9.73478 9 10C9 10.2652 9.10536 10.5196 9.29289 10.7071C9.48043 10.8946 9.73478 11 10 11C10.2652 11 10.5196 10.8946 10.7071 10.7071C10.8946 10.5196 11 10.2652 11 10C11 9.73478 10.8946 9.48043 10.7071 9.29289C10.5196 9.10536 10.2652 9 10 9Z" fill="#3289F3"/>
</svg>
