<svg width="20" height="23" viewBox="0 0 20 23" fill="none" xmlns="http://www.w3.org/2000/svg">
<path d="M7.975 8.47501C8.46445 7.98551 8.79776 7.36187 8.93278 6.68294C9.0678 6.00402 8.99846 5.3003 8.73355 4.66078C8.46863 4.02126 8.02003 3.47466 7.44446 3.09009C6.8689 2.70552 6.19222 2.50026 5.5 2.50026C4.80778 2.50026 4.13111 2.70552 3.55554 3.09009C2.97998 3.47466 2.53138 4.02126 2.26646 4.66078C2.00154 5.3003 1.93221 6.00402 2.06723 6.68294C2.20225 7.36187 2.53555 7.98551 3.025 8.47501L5.5 10.95L7.975 8.47501ZM5.5 13.778L1.61 9.89001C0.841072 9.12071 0.317504 8.1407 0.105495 7.07388C-0.106515 6.00705 0.00255424 4.90132 0.418912 3.89648C0.83527 2.89163 1.54022 2.0328 2.44463 1.42857C3.34905 0.824335 4.41232 0.501831 5.5 0.501831C6.58769 0.501831 7.65096 0.824335 8.55537 1.42857C9.45978 2.0328 10.1647 2.89163 10.5811 3.89648C10.9975 4.90132 11.1065 6.00705 10.8945 7.07388C10.6825 8.1407 10.1589 9.12071 9.39 9.89001L5.5 13.78V13.778ZM5.5 7.50001C5.10218 7.50001 4.72065 7.34197 4.43934 7.06067C4.15804 6.77936 4 6.39783 4 6.00001C4 5.60218 4.15804 5.22065 4.43934 4.93935C4.72065 4.65804 5.10218 4.50001 5.5 4.50001C5.89783 4.50001 6.27936 4.65804 6.56066 4.93935C6.84197 5.22065 7 5.60218 7 6.00001C7 6.39783 6.84197 6.77936 6.56066 7.06067C6.27936 7.34197 5.89783 7.50001 5.5 7.50001ZM14.5 19.95L16.975 17.475C17.4645 16.9855 17.7978 16.3619 17.9328 15.6829C18.0678 15.004 17.9985 14.3003 17.7335 13.6608C17.4686 13.0213 17.02 12.4747 16.4445 12.0901C15.8689 11.7055 15.1922 11.5003 14.5 11.5003C13.8078 11.5003 13.1311 11.7055 12.5555 12.0901C11.98 12.4747 11.5314 13.0213 11.2665 13.6608C11.0015 14.3003 10.9322 15.004 11.0672 15.6829C11.2022 16.3619 11.5356 16.9855 12.025 17.475L14.5 19.95ZM18.39 18.89L14.5 22.778L10.61 18.889C9.84107 18.1197 9.3175 17.1397 9.1055 16.0729C8.89349 15.0061 9.00255 13.9003 9.41891 12.8955C9.83527 11.8906 10.5402 11.0318 11.4446 10.4276C12.349 9.82334 13.4123 9.50083 14.5 9.50083C15.5877 9.50083 16.651 9.82334 17.5554 10.4276C18.4598 11.0318 19.1647 11.8906 19.5811 12.8955C19.9974 13.9003 20.1065 15.0061 19.8945 16.0729C19.6825 17.1397 19.1589 18.1207 18.39 18.89ZM14.5 16.5C14.1022 16.5 13.7206 16.342 13.4393 16.0607C13.158 15.7794 13 15.3978 13 15C13 14.6022 13.158 14.2206 13.4393 13.9393C13.7206 13.658 14.1022 13.5 14.5 13.5C14.8978 13.5 15.2794 13.658 15.5607 13.9393C15.842 14.2206 16 14.6022 16 15C16 15.3978 15.842 15.7794 15.5607 16.0607C15.2794 16.342 14.8978 16.5 14.5 16.5Z" fill="#3289F3"/>
</svg>
