<svg width="235" height="235" viewBox="0 0 235 235" fill="none" xmlns="http://www.w3.org/2000/svg">
<mask id="mask0_231_1053" style="mask-type:alpha" maskUnits="userSpaceOnUse" x="0" y="0" width="235" height="235">
<path d="M117.5 235C182.393 235 235 182.393 235 117.5C235 52.6065 182.393 0 117.5 0C52.6065 0 0 52.6065 0 117.5C0 182.393 52.6065 235 117.5 235Z" fill="#3289F3"/>
</mask>
<g mask="url(#mask0_231_1053)">
<g clip-path="url(#clip0_231_1053)">
<path d="M117.52 235C182.413 235 235.02 182.393 235.02 117.5C235.02 52.6065 182.413 -3.05176e-05 117.52 -3.05176e-05C52.6264 -3.05176e-05 0.0198975 52.6065 0.0198975 117.5C0.0198975 182.393 52.6264 235 117.52 235Z" fill="#3289F3"/>
<mask id="mask1_231_1053" style="mask-type:luminance" maskUnits="userSpaceOnUse" x="0" y="0" width="236" height="235">
<path d="M117.52 235C182.413 235 235.02 182.393 235.02 117.5C235.02 52.6065 182.413 -3.05176e-05 117.52 -3.05176e-05C52.6264 -3.05176e-05 0.0198975 52.6065 0.0198975 117.5C0.0198975 182.393 52.6264 235 117.52 235Z" fill="white"/>
</mask>
<g mask="url(#mask1_231_1053)">
<path d="M34.7528 132.541L20.9768 131.822L21.879 132.885C25.4089 116.089 32.9744 99.836 45.2598 87.7105C46.4495 86.468 48.1312 84.9603 49.4482 83.9107L51.6175 82.1012L53.9248 80.4733C61.5292 74.9563 70.4237 71.2587 79.5805 69.2311C109.636 62.6579 141.179 73.9967 164.171 93.5534C164.414 93.7888 164.758 93.9397 165.079 93.9527C170.947 94.8695 176.729 96.0511 182.328 97.7736C190.562 100.356 198.737 104.032 204.983 110.085C211.722 116.513 213.744 124.825 210.533 133.674C210.442 133.886 210.791 134.037 210.89 133.835C214.093 128.503 215.1 121.609 212.672 115.691C207.785 103.775 195.312 97.1258 183.548 93.6668C177.599 91.9666 171.465 91.0445 165.342 90.8997L166.246 91.2989C155.071 80.1118 141.158 71.479 125.941 66.5255C100.388 57.9875 70.013 61.0377 48.7185 78.4426C32.4603 91.8146 22.8215 111.953 20.0746 132.586C19.9633 133.139 20.3977 133.69 20.9769 133.651L34.7529 132.932C35.0081 132.916 34.9834 132.554 34.7528 132.541Z" fill="white"/>
<path d="M183.713 151.192C187.045 151.192 190.04 150.718 192.698 149.771C195.356 148.825 197.62 147.493 199.488 145.776C201.356 144.06 202.787 142.042 203.779 139.724C204.771 137.405 205.266 134.874 205.266 132.13C205.266 129.386 204.771 126.856 203.779 124.537C202.787 122.218 201.356 120.205 199.488 118.496C197.62 116.787 195.356 115.46 192.698 114.512C190.04 113.566 187.045 113.092 183.713 113.092C180.4 113.092 177.414 113.566 174.756 114.512C172.098 115.46 169.83 116.787 167.952 118.496C166.074 120.205 164.634 122.218 163.632 124.537C162.631 126.856 162.13 129.386 162.13 132.13C162.13 134.874 162.631 137.405 163.632 139.724C164.634 142.042 166.074 144.06 167.952 145.776C169.83 147.493 172.098 148.825 174.756 149.771C177.414 150.718 180.4 151.192 183.713 151.192ZM183.713 146.739C181.209 146.739 179.003 146.374 177.096 145.644C175.189 144.914 173.591 143.891 172.3 142.575C171.01 141.26 170.037 139.711 169.382 137.93C168.727 136.149 168.399 134.216 168.399 132.13C168.399 130.029 168.727 128.083 169.382 126.294C170.037 124.505 171.01 122.949 172.3 121.625C173.591 120.301 175.189 119.271 177.096 118.532C179.003 117.794 181.209 117.425 183.713 117.425C186.217 117.425 188.427 117.794 190.343 118.532C192.26 119.271 193.868 120.301 195.169 121.625C196.469 122.949 197.451 124.505 198.116 126.294C198.78 128.083 199.113 130.029 199.113 132.13C199.113 134.216 198.78 136.149 198.116 137.93C197.451 139.711 196.469 141.26 195.169 142.575C193.868 143.891 192.26 144.914 190.343 145.644C188.427 146.374 186.217 146.739 183.713 146.739Z" fill="white"/>
<path d="M145.661 138.034V118.243H160.107V113.79H125.06V118.243H139.565V138.034H145.661Z" fill="white"/>
<path d="M106.078 138.034V118.243H120.524V113.79H85.4781V118.243H99.9821V138.034H106.078Z" fill="white"/>
<path d="M61.8725 151.192C65.2056 151.192 68.2003 150.718 70.8583 149.771C73.5163 148.825 75.7799 147.493 77.6484 145.776C79.517 144.06 80.9467 142.042 81.9385 139.724C82.9311 137.405 83.4265 134.874 83.4265 132.13C83.4265 129.386 82.931 126.856 81.9385 124.537C80.9467 122.218 79.517 120.205 77.6484 118.496C75.7799 116.787 73.5162 115.46 70.8583 114.512C68.2003 113.566 65.2056 113.092 61.8725 113.092C58.5604 113.092 55.5738 113.566 52.9159 114.512C50.2579 115.46 47.9903 116.787 46.112 118.496C44.2337 120.205 42.7942 122.218 41.7927 124.537C40.7913 126.856 40.2901 129.386 40.2901 132.13C40.2901 134.874 40.7913 137.405 41.7927 139.724C42.7942 142.042 44.2337 144.06 46.112 145.776C47.9903 147.493 50.258 148.825 52.9159 149.771C55.5738 150.718 58.5604 151.192 61.8725 151.192ZM61.8725 146.739C59.3692 146.739 57.163 146.374 55.2564 145.644C53.3498 144.914 51.7508 143.891 50.4603 142.575C49.1698 141.26 48.1966 139.711 47.5417 137.93C46.8875 136.149 46.5596 134.216 46.5596 132.13C46.5596 130.029 46.8875 128.083 47.5417 126.294C48.1966 124.505 49.1698 122.949 50.4603 121.625C51.7508 120.301 53.3498 119.271 55.2564 118.532C57.163 117.794 59.3692 117.425 61.8725 117.425C64.3758 117.425 66.5876 117.794 68.5039 118.532C70.4202 119.271 72.029 120.301 73.3283 121.625C74.6286 122.949 75.6114 124.505 76.2761 126.294C76.94 128.083 77.2727 130.029 77.2727 132.13C77.2727 134.216 76.9399 136.149 76.2761 137.93C75.6114 139.711 74.6286 141.26 73.3283 142.575C72.0289 143.891 70.4202 144.914 68.5039 145.644C66.5876 146.374 64.3766 146.739 61.8725 146.739Z" fill="white"/>
</g>
</g>
<g style="mix-blend-mode:overlay" opacity="0.1">
<g filter="url(#filter0_i_231_1053)">
<path d="M317.691 105.266L-95.7389 -82.7963L-95.7389 84.2423L122.321 213.719L317.691 213.719L317.691 105.266Z" fill="#555555"/>
</g>
<path d="M-95.8951 -81.0015L-99.5502 -101L334.776 75.9095L339.969 118.47L-95.8951 -81.0015Z" fill="#FFE898"/>
</g>
</g>
<defs>
<filter id="filter0_i_231_1053" x="-95.7389" y="-82.7963" width="413.43" height="367.516" filterUnits="userSpaceOnUse" color-interpolation-filters="sRGB">
<feFlood flood-opacity="0" result="BackgroundImageFix"/>
<feBlend mode="normal" in="SourceGraphic" in2="BackgroundImageFix" result="shape"/>
<feColorMatrix in="SourceAlpha" type="matrix" values="0 0 0 0 0 0 0 0 0 0 0 0 0 0 0 0 0 0 127 0" result="hardAlpha"/>
<feOffset dy="71"/>
<feGaussianBlur stdDeviation="111"/>
<feComposite in2="hardAlpha" operator="arithmetic" k2="-1" k3="1"/>
<feColorMatrix type="matrix" values="0 0 0 0 0 0 0 0 0 0 0 0 0 0 0 0 0 0 0.47 0"/>
<feBlend mode="normal" in2="shape" result="effect1_innerShadow_231_1053"/>
</filter>
<clipPath id="clip0_231_1053">
<rect width="235" height="235" fill="white" transform="translate(0.0198975 -3.05176e-05)"/>
</clipPath>
</defs>
</svg>
