<?xml version="1.0" encoding="UTF-8" standalone="no"?>
<!-- Created with Inkscape (http://www.inkscape.org/) -->

<svg
   version="1.1"
   id="svg2"
   width="56.693333"
   height="56.693333"
   viewBox="0 0 56.693333 56.693333"
   sodipodi:docname="itsme.eps"
   xmlns:inkscape="http://www.inkscape.org/namespaces/inkscape"
   xmlns:sodipodi="http://sodipodi.sourceforge.net/DTD/sodipodi-0.dtd"
   xmlns="http://www.w3.org/2000/svg"
   xmlns:svg="http://www.w3.org/2000/svg">
  <defs
     id="defs6" />
  <sodipodi:namedview
     id="namedview4"
     pagecolor="#ffffff"
     bordercolor="#000000"
     borderopacity="0.25"
     inkscape:showpageshadow="2"
     inkscape:pageopacity="0.0"
     inkscape:pagecheckerboard="0"
     inkscape:deskcolor="#d1d1d1" />
  <g
     id="g8"
     inkscape:groupmode="layer"
     inkscape:label="ink_ext_XXXXXX"
     transform="matrix(1.3333333,0,0,-1.3333333,0,56.693333)">
    <g
       id="g10"
       transform="scale(0.1)">
      <path
         d="M 22.7539,120.473 C 4.84375,138.383 -4.44922,173.051 2.10156,197.512 L 37.8594,330.941 c 6.5508,24.461 31.9375,49.844 56.3984,56.399 l 133.4302,35.758 c 24.46,6.55 59.128,-2.743 77.039,-20.653 l 97.671,-97.675 c 17.907,-17.872 27.192,-52.575 20.7,-77.036 L 387.293,94.3008 C 380.742,69.8438 355.355,44.457 330.895,37.9063 L 197.461,2.10156 C 173,-4.44922 138.336,4.83203 120.426,22.7383 L 22.7539,120.473"
         style="fill:#f0422c;fill-opacity:1;fill-rule:nonzero;stroke:none"
         id="path12" />
      <path
         d="m 260.902,272.109 c -12.691,4.336 -20.757,6 -20.179,13.524 0.441,5.859 4.886,8.871 13.031,8.203 5.941,-0.457 9.539,-2.918 11.355,-6.621 2.329,-4.711 7.09,-7.731 12.34,-7.828 11.84,-0.258 19.047,13.492 11.625,22.722 -6.664,8.301 -17.636,13.914 -33.105,15.098 -27.156,2.086 -44.266,-10.055 -45.86,-30.73 -1.699,-22.141 13.184,-28.129 35.711,-35.735 15.387,-4.957 19.196,-7.359 18.75,-13.828 -0.48,-6.269 -5.976,-9.375 -14.332,-8.777 -6.965,0.535 -11.242,3.289 -13.258,7.429 -2.261,4.688 -7.335,7.278 -12.503,7.383 v 0 c -3.879,0.117 -7.633,-1.398 -10.348,-4.172 v 0 c 0,0 -5.859,-6.55 -17.285,-6.55 -8.313,0.222 -15.672,4.687 -15.672,16.324 l 0.281,38.91 c 7.836,-4.836 18.113,-2.402 22.949,5.434 4.836,7.839 2.407,18.117 -5.433,22.953 -2.656,1.64 -5.719,2.5 -8.844,2.484 -3,-0.019 -5.937,-0.871 -8.484,-2.461 l 0.023,14.285 c 0.031,5.039 -4.023,9.145 -9.059,9.18 -0.019,0 -0.039,0 -0.058,0 h -12.379 c -5.02,0 -9.09,-4.059 -9.117,-9.074 l -0.539,-83.539 c -0.809,-10.395 -7.992,-14.391 -16.032,-14.453 -8.535,0 -16.199,4.468 -16.199,16.328 l 0.574,52.742 c 0.028,3.324 -2.648,6.043 -5.976,6.07 -0.016,0 -0.031,0 -0.047,0 H 94.3047 c -3.3086,0 -6,-2.672 -6.0234,-5.976 l -0.586,-60.196 c -0.2148,-25.093 19.5587,-36.379 46.7847,-36.379 11.391,0 19.208,4.594 24.61,10.981 6.918,-7.465 17.711,-10.981 30.777,-10.981 13.071,0 22.844,1.711 32.547,7.219 6.754,-3.973 15.352,-6.461 25.781,-7.254 28.2,-2.168 45.36,10.547 47.047,32.531 1.477,19.61 -13.258,27.477 -34.34,34.754"
         style="fill:#ffffff;fill-opacity:1;fill-rule:nonzero;stroke:none"
         id="path14" />
      <path
         d="m 104.309,320.77 c 9.214,-0.032 16.707,7.406 16.738,16.617 0.035,9.215 -7.406,16.707 -16.621,16.738 -9.2112,0.031 -16.7033,-7.41 -16.7346,-16.621 0,-0.07 0,-0.141 0.0039,-0.207 0.0547,-9.141 7.4766,-16.524 16.6137,-16.527"
         style="fill:#ffffff;fill-opacity:1;fill-rule:nonzero;stroke:none"
         id="path16" />
      <path
         d="m 300.094,197.922 c -27.332,0 -47.84,-15.379 -53.489,-41.34 -1.546,24.32 -17.054,38.898 -39.917,38.898 -15.954,0 -26.383,-7.16 -32.516,-16.769 -6.957,10.793 -18.609,16.769 -33.129,16.769 -13.477,0 -56.0352,1.641 -56.0352,-53.031 0,-1.172 0,-2.156 0,-3.199 v -0.07 -36.532 c -0.2305,-8.2417 6.2656,-15.1128 14.5078,-15.3433 8.2464,-0.2305 15.1134,6.2617 15.3434,14.5083 0.008,0.277 0.008,0.558 0,0.835 v 43.715 c 0,12.68 7.161,21.258 19.02,21.258 10.844,0 17.172,-7.555 17.172,-21.094 v -43.961 c 0.004,-8.2457 6.691,-14.9293 14.937,-14.9215 8.242,0.0039 14.922,6.6797 14.926,14.9215 v 47.477 c 1.172,10.633 7.77,17.578 18.402,17.578 11.446,0 17.579,-7.555 17.579,-21.094 v -43.961 c -0.231,-8.2418 6.261,-15.1129 14.503,-15.3433 8.247,-0.2305 15.118,6.2656 15.348,14.5073 0.008,0.278 0.008,0.559 0,0.836 v 23.372 c 5.859,-25.481 26.367,-40.7427 54.168,-40.7427 13.07,0 25.469,3.9961 34.481,10.5508 0.316,0.2227 0.609,0.4453 0.914,0.6641 0.304,0.2265 0.703,0.4961 1.031,0.7656 0,0 0,0.0937 0.07,0.1289 0.492,0.3984 1.02,0.7851 1.488,1.1719 8.747,7.9924 3.715,22.6754 -8.027,24.2224 -5.211,0.703 -10.375,-1.554 -13.398,-5.859 v 0 c -3.407,-4.453 -9.301,-6.961 -17.368,-6.961 -13.828,0 -21.996,8.59 -22.632,22 h 64.636 c 5.379,0 9.739,4.359 9.739,9.738 v 2.414 c 0,33.766 -20.532,53.891 -51.754,53.891 z m -22.633,-45.707 c 0.832,13.828 9.379,21.785 22.422,21.785 13.828,0 20.535,-8.59 21.168,-21.785 h -43.59"
         style="fill:#ffffff;fill-opacity:1;fill-rule:nonzero;stroke:none"
         id="path18" />
    </g>
  </g>
</svg>
