<svg width="23" height="23" viewBox="0 0 23 23" fill="none" xmlns="http://www.w3.org/2000/svg">
<path d="M11.0502 22.6775C10.6029 22.6775 10.2277 22.5259 9.92464 22.2229C9.62155 21.9198 9.47053 21.5451 9.47158 21.0989L9.47158 13.2059H1.5786C1.13133 13.2059 0.756153 13.0544 0.453063 12.7513C0.149972 12.4482 -0.00104693 12.0735 5.46226e-06 11.6273C5.46226e-06 11.1801 0.151551 10.8049 0.454641 10.5018C0.757732 10.1987 1.13238 10.0477 1.5786 10.0487H9.47158V2.15575C9.47158 1.70848 9.62313 1.3333 9.92622 1.03021C10.2293 0.727121 10.604 0.576102 11.0502 0.577154C11.4974 0.577154 11.8726 0.728699 12.1757 1.03179C12.4788 1.33488 12.6298 1.70953 12.6288 2.15575V10.0487L20.5218 10.0487C20.969 10.0487 21.3442 10.2003 21.6473 10.5034C21.9504 10.8065 22.1014 11.1811 22.1003 11.6273C22.1003 12.0746 21.9488 12.4498 21.6457 12.7529C21.3426 13.056 20.968 13.207 20.5218 13.2059L12.6288 13.2059L12.6288 21.0989C12.6288 21.5462 12.4772 21.9213 12.1741 22.2244C11.871 22.5275 11.4964 22.6785 11.0502 22.6775Z" fill="#3289F3"/>
</svg>
