<svg width="22" height="22" viewBox="0 0 22 22" fill="none" xmlns="http://www.w3.org/2000/svg">
<path d="M19.5714 21.6066L14.7143 16.7381C14 17.3103 13.1786 17.7633 12.25 18.0971C11.3214 18.4309 10.3333 18.5978 9.28571 18.5978C6.69048 18.5978 4.49429 17.6975 2.69714 15.8969C0.9 14.0962 0.000952381 11.8969 0 9.29892C0 6.69999 0.899048 4.50068 2.69714 2.70098C4.49524 0.90128 6.69143 0.000953736 9.28571 0C11.881 0 14.0771 0.900327 15.8743 2.70098C17.6714 4.50163 18.5705 6.70095 18.5714 9.29892C18.5714 10.348 18.4048 11.3375 18.0714 12.2674C17.7381 13.1973 17.2857 14.0199 16.7143 14.7352L21.6071 19.6395C21.8691 19.9018 22 20.2237 22 20.6052C22 20.9867 21.8571 21.3205 21.5714 21.6066C21.3095 21.8689 20.9762 22 20.5714 22C20.1667 22 19.8333 21.8689 19.5714 21.6066ZM9.28571 15.7366C11.0714 15.7366 12.5895 15.1105 13.84 13.8583C15.0905 12.606 15.7152 11.0862 15.7143 9.29892C15.7143 7.51067 15.089 5.99041 13.8386 4.73816C12.5881 3.4859 11.0705 2.86025 9.28571 2.86121C7.5 2.86121 5.98191 3.48733 4.73143 4.73959C3.48095 5.99184 2.85619 7.51162 2.85714 9.29892C2.85714 11.0872 3.48238 12.6074 4.73286 13.8597C5.98333 15.1119 7.50095 15.7376 9.28571 15.7366Z" fill="#3289F3"/>
</svg>
